<svg width="32" height="32" viewBox="0 0 200 200" fill="none" xmlns="http://www.w3.org/2000/svg">
  <!-- Background Circle -->
  <circle cx="100" cy="100" r="90" fill="url(#gradient1)"/>
  
  <!-- Task List Icon -->
  <rect x="60" y="50" width="80" height="100" rx="8" fill="white" opacity="0.95"/>
  <line x1="75" y1="70" x2="125" y2="70" stroke="#6366f1" stroke-width="4" stroke-linecap="round"/>
  <line x1="75" y1="90" x2="125" y2="90" stroke="#6366f1" stroke-width="4" stroke-linecap="round"/>
  <line x1="75" y1="110" x2="110" y2="110" stroke="#6366f1" stroke-width="4" stroke-linecap="round"/>
  
  <!-- Checkmark on first line -->
  <circle cx="75" cy="70" r="8" fill="#10b981"/>
  <path d="M72 70 L74.5 72.5 L78 69" stroke="white" stroke-width="2" stroke-linecap="round" stroke-linejoin="round" fill="none"/>
  
  <!-- AI Sparkle/Magic -->
  <circle cx="140" cy="50" r="12" fill="url(#gradient2)"/>
  <path d="M140 38 L142 44 L148 44 L143 48 L145 54 L140 50 L135 54 L137 48 L132 44 L138 44 Z" fill="white"/>
  
  <!-- Gradient Definitions -->
  <defs>
    <linearGradient id="gradient1" x1="0%" y1="0%" x2="100%" y2="100%">
      <stop offset="0%" style="stop-color:#6366f1;stop-opacity:1" />
      <stop offset="100%" style="stop-color:#8b5cf6;stop-opacity:1" />
    </linearGradient>
    <linearGradient id="gradient2" x1="0%" y1="0%" x2="100%" y2="100%">
      <stop offset="0%" style="stop-color:#f59e0b;stop-opacity:1" />
      <stop offset="100%" style="stop-color:#ef4444;stop-opacity:1" />
    </linearGradient>
  </defs>
</svg>

